<?xml version="1.0" encoding="utf-8"?>
<!-- Generator: Adobe Illustrator 26.1.0, SVG Export Plug-In . SVG Version: 6.00 Build 0)  -->
<svg version="1.1" id="Layer_1" xmlns="http://www.w3.org/2000/svg" xmlns:xlink="http://www.w3.org/1999/xlink" x="0px" y="0px"
	 viewBox="0 0 1606.72 969.14" style="enable-background:new 0 0 1606.72 969.14;" xml:space="preserve">
<style type="text/css">
	.st0{fill:#FFFFFF;stroke:#E20613;stroke-width:18.3994;stroke-miterlimit:10;}
	.st1{fill:#FF4A57;}
	.st2{fill:none;stroke:#1D1D1B;stroke-width:4;stroke-miterlimit:10;}
</style>
<path class="st0" d="M1344.58,162.68"/>
<path class="st0" d="M1387.8,86.24"/>
<path class="st0" d="M1387.8,302.8"/>
<g>
	<g>
		<path class="st1" d="M939.23,809.23H755.01V465.09L606.63,614.44L453.97,464.16v345.07H273.65V169.28h142.37l190.46,192.89
			l191.39-192.89h141.36V809.23z M804.14,760.1h85.96V218.41h-71.76L606.4,432.01l-210.91-213.6h-72.7V760.1h82.06V346.85
			l201.41,198.27l197.89-199.2V760.1z"/>
	</g>
	<g>
		<polygon class="st1" points="1352.81,809.76 1149.43,809.76 995.98,552.39 802.19,748.48 766.49,713.19 1005.87,470.97 
			1177.94,759.56 1264.21,759.56 1060.62,419.85 1250.29,218.94 1157.95,218.94 802.71,600.55 765.97,566.35 1136.1,168.75 
			1366.72,168.75 1123.22,426.66 		"/>
	</g>
</g>
<path class="st2" d="M221.67,167.44"/>
</svg>
