<svg xmlns="http://www.w3.org/2000/svg" width="172.988" height="172.987" viewBox="0 0 172.988 172.987"><rect width="122.321" height="122.321" transform="translate(0 86.494) rotate(-45)" fill="#ff4a57"/><path d="M61.347,64H26.292a26.292,26.292,0,0,0,0,52.583H61.347a26.292,26.292,0,0,0,0-52.583ZM33.837,93.578H29.455V97.96a3.286,3.286,0,0,1-6.573,0V93.578l-4.259-.123A3.228,3.228,0,1,1,18.507,87h4.375V82.623a3.286,3.286,0,1,1,6.573,0v4.382h4.382a3.3,3.3,0,0,1,3.289,3.286A3.223,3.223,0,0,1,33.837,93.578Zm25.2,8.764a5.34,5.34,0,0,1-5.354-5.354,5.528,5.528,0,0,1,5.354-5.477,5.447,5.447,0,0,1,5.354,5.477A5.193,5.193,0,0,1,59.033,102.342ZM67.8,89.2a5.34,5.34,0,0,1-5.354-5.354A5.528,5.528,0,0,1,67.8,78.365a5.369,5.369,0,0,1,5.354,5.477A5.193,5.193,0,0,1,67.8,89.2Z" transform="translate(43.234 -3.999)" fill="#1f2235"/></svg>