<svg xmlns="http://www.w3.org/2000/svg" width="71.879" height="70.083" viewBox="0 0 71.879 70.083"><path d="M24.042,64.431c0,.29-.333.522-.754.522-.478.043-.812-.188-.812-.522,0-.29.333-.522.754-.522C23.665,63.866,24.042,64.1,24.042,64.431Zm-4.507-.652c-.1.29.188.623.623.71a.68.68,0,0,0,.9-.29c.087-.29-.188-.623-.623-.754a.744.744,0,0,0-.9.333Zm6.405-.246c-.42.1-.71.377-.667.71.043.29.42.478.855.377s.71-.377.667-.667S26.36,63.489,25.94,63.532ZM35.476,8C15.376,8,0,23.26,0,43.36A36.332,36.332,0,0,0,24.563,78.024c1.855.333,2.507-.812,2.507-1.753,0-.9-.043-5.855-.043-8.9,0,0-10.144,2.174-12.274-4.319,0,0-1.652-4.217-4.029-5.3,0,0-3.319-2.275.232-2.232a7.65,7.65,0,0,1,5.594,3.739c3.174,5.594,8.492,3.985,10.564,3.029A8.054,8.054,0,0,1,29.433,57.4c-8.1-.9-16.274-2.072-16.274-16.013,0-3.985,1.1-5.985,3.42-8.536a13.692,13.692,0,0,1,.377-9.84c3.029-.942,10,3.913,10,3.913a34.235,34.235,0,0,1,18.2,0s6.971-4.869,10-3.913a13.686,13.686,0,0,1,.377,9.84c2.319,2.565,3.739,4.565,3.739,8.536,0,13.985-8.536,15.1-16.636,16.013,1.333,1.145,2.464,3.319,2.464,6.724,0,4.884-.043,10.927-.043,12.115,0,.942.667,2.087,2.507,1.753C62.054,73.184,71.879,59.431,71.879,43.36,71.879,23.26,55.576,8,35.476,8ZM14.086,57.982c-.188.145-.145.478.1.754.232.232.565.333.754.145.188-.145.145-.478-.1-.754C14.608,57.895,14.274,57.794,14.086,57.982Zm-1.565-1.174c-.1.188.043.42.333.565a.431.431,0,0,0,.623-.1c.1-.188-.043-.42-.333-.565C12.854,56.62,12.622,56.663,12.521,56.808Zm4.7,5.159c-.232.188-.145.623.188.9.333.333.754.377.942.145.188-.188.1-.623-.188-.9C17.839,61.779,17.4,61.735,17.216,61.967Zm-1.652-2.13c-.232.145-.232.522,0,.855s.623.478.812.333a.661.661,0,0,0,0-.9c-.2-.333-.58-.478-.812-.29Z" transform="translate(0 -8)" fill="#ff4a57"/></svg>