<svg xmlns="http://www.w3.org/2000/svg" width="70.083" height="70.083" viewBox="0 0 70.083 70.083"><path d="M65.077,32H4.99A5.028,5.028,0,0,0,0,37.053V97.03a5.028,5.028,0,0,0,4.99,5.053H65.077a5.041,5.041,0,0,0,5.006-5.053V37.053A5.041,5.041,0,0,0,65.077,32Zm-43.9,60.071H10.794V58.625H21.2V92.071ZM15.988,54.057a6.023,6.023,0,1,1,6.023-6.023A6.025,6.025,0,0,1,15.988,54.057Zm44.13,38.014H49.731V75.8c0-3.88-.078-8.87-5.4-8.87-5.413,0-6.242,4.224-6.242,8.588V92.071H27.7V58.625H37.67v4.568h.141a10.941,10.941,0,0,1,9.84-5.4c10.512,0,12.468,6.93,12.468,15.941Z" transform="translate(0 -32)" fill="#ff4a57"/></svg>