<svg xmlns="http://www.w3.org/2000/svg" width="61.323" height="70.083" viewBox="0 0 61.323 70.083"><path d="M33.342,12.539l10.966,6.4a.629.629,0,0,1,0,1.073L31.278,27.63a1.2,1.2,0,0,1-1.226,0l-13.03-7.615a.626.626,0,0,1,0-1.073l10.959-6.4V0L0,16.346V49.038l10.729-6.266V29.965a.617.617,0,0,1,.917-.537l13.03,7.615a1.245,1.245,0,0,1,.616,1.073V53.338a.617.617,0,0,1-.918.537l-10.966-6.4L2.681,53.737,30.661,70.083,58.642,53.737,47.913,47.471l-10.966,6.4a.617.617,0,0,1-.918-.537V38.116a1.244,1.244,0,0,1,.616-1.073l13.03-7.615a.614.614,0,0,1,.917.537V42.772l10.729,6.266V16.346L33.342,0Z" fill="#ff4a57"/></svg>