<svg xmlns="http://www.w3.org/2000/svg" width="172.988" height="172.987" viewBox="0 0 172.988 172.987"><rect width="122.321" height="122.321" transform="translate(0 86.494) rotate(-45)" fill="#ff4a57"/><path d="M48.525,51.047,67.483,32.089A6.92,6.92,0,0,0,66.665,32H53.858L34.811,51.047Zm-23.809,0L43.764,32H30.044L11,51.047ZM74.06,35.6,58.614,51.047H76.188V41.524A9.426,9.426,0,0,0,74.06,35.6ZM19.955,32H9.524A9.523,9.523,0,0,0,0,41.524v9.524H.9ZM0,89.141a9.523,9.523,0,0,0,9.524,9.524H66.665a9.523,9.523,0,0,0,9.524-9.524V55.809H0Z" transform="translate(48.219 21.466)" fill="#1f2235"/></svg>