<svg xmlns="http://www.w3.org/2000/svg" width="172.987" height="172.987" viewBox="0 0 172.987 172.987"><rect width="122.321" height="122.321" transform="translate(0 86.494) rotate(-45)" fill="#ff4a57"/><path d="M20.323,42.162h60.97V82.809H91.455V39.621A7.647,7.647,0,0,0,83.834,32H17.783a7.65,7.65,0,0,0-7.621,7.621V82.809H20.323ZM99.077,87.889H2.54A2.563,2.563,0,0,0,0,90.43v2.54a10.181,10.181,0,0,0,10.162,10.162H91.455A10.181,10.181,0,0,0,101.617,92.97V90.43A2.558,2.558,0,0,0,99.077,87.889ZM58.1,72.361a3.181,3.181,0,0,0,4.484-.007L70.2,64.733a3.18,3.18,0,0,0,0-4.495L62.58,52.617a3.177,3.177,0,0,0-4.49,4.495l5.376,5.373L58.09,67.857A3.171,3.171,0,0,0,58.1,72.361ZM43.521,52.625a3.174,3.174,0,0,0-4.49,0l-7.621,7.621a3.18,3.18,0,0,0,0,4.495l7.621,7.621a3.2,3.2,0,0,0,2.251.919,3.175,3.175,0,0,0,2.245-5.423l-5.373-5.374,5.376-5.373A3.447,3.447,0,0,0,43.521,52.625Z" transform="translate(34.909 19.331)" fill="#1f2235"/></svg>