<svg xmlns="http://www.w3.org/2000/svg" width="99.674" height="70.083" viewBox="0 0 99.674 70.083"><path d="M112.524,74.966a12.524,12.524,0,0,0-8.812-8.869C95.939,64,64.77,64,64.77,64S33.6,64,25.828,66.1a12.524,12.524,0,0,0-8.812,8.869c-2.083,7.824-2.083,24.147-2.083,24.147s0,16.323,2.083,24.147a12.338,12.338,0,0,0,8.812,8.728c7.773,2.1,38.942,2.1,38.942,2.1s31.169,0,38.942-2.1a12.338,12.338,0,0,0,8.812-8.728c2.083-7.824,2.083-24.147,2.083-24.147S114.607,82.789,112.524,74.966ZM54.576,113.932V84.292L80.627,99.113l-26.051,14.82Z" transform="translate(-14.933 -64)" fill="#ff4a57"/></svg>